<?xml version="1.0" encoding="UTF-8"?><svg id="Layer_2" xmlns="http://www.w3.org/2000/svg" viewBox="0 0 350.47 341.84"><defs><style>.cls-1{stroke-width:0px;}</style></defs><g id="Layer_1-2"><path class="cls-1" d="m0,164.01c.88-6.4,1.64-12.83,2.67-19.21,4.03-25.05,13.63-47.88,27.96-68.73C52.3,44.54,81.36,22.45,117.33,9.62,141.75.92,167-1.54,192.79.88c32.13,3.01,61.04,14.36,86.84,33.55,31.4,23.35,52.62,53.96,63.81,91.42,7.18,24.05,8.72,48.65,5.27,73.45-6.82,48.94-31.12,87.65-70.05,117.42-14.12,10.8-30.02,18.52-46.84,24.27-7.72,2.64-12.95-1.06-12.98-9.2-.06-15.17.02-30.34-.04-45.5-.03-7.55-.45-15.13-3.74-22.07-1.92-4.06-4.6-7.75-6.96-11.64,6.39-1.19,13.34-2.08,20.07-3.81,17.85-4.61,33.83-12.52,44.66-28.18,7.88-11.4,11.53-24.45,13.13-38.06,1.22-10.32,1.57-20.68-.41-30.99-2.21-11.45-7.15-21.58-14.81-30.33-1.39-1.58-1.62-2.89-.94-4.84,5.04-14.41,3.09-28.52-2.25-42.38-.33-.85-1.77-1.66-2.79-1.8-6.09-.86-11.85.86-17.2,3.38-8.84,4.16-17.38,8.96-26.13,13.3-1.56.78-3.72,1.26-5.35.86-27.31-6.83-54.57-6.83-81.88.03-1.62.41-3.89-.05-5.32-.95-11.13-7.08-22.86-12.73-35.65-16.1-.22-.06-.43-.14-.66-.19-8.17-1.73-9.63-.8-11.97,7.23-3.64,12.45-4.29,24.85.06,37.3.35,1,.03,2.75-.67,3.54-14.7,16.71-18.03,36.49-16.02,57.84,1.17,12.5,4.13,24.45,9.73,35.7,7.9,15.85,21.24,25.53,37.4,31.12,9.6,3.32,19.87,4.71,29.84,6.97.52.12,1.06.18,1.15.19-2.55,4.64-5.18,9.22-7.59,13.91-.81,1.59-1.43,3.45-1.5,5.21-.15,3.69-2.09,5.36-5.43,6.27-11.09,3-22.1,4.94-32.71-1.57-5.57-3.42-9.72-8.21-13-13.79-5.05-8.59-12.13-14.89-21.7-17.72-3.55-1.05-7.59-.76-11.37-.54-2.31.14-3.06,2.02-1.5,3.96,1.55,1.94,3.09,4.16,5.16,5.36,9.4,5.45,14.68,14.08,18.9,23.58,2.41,5.42,4.68,10.84,9.26,14.96,7.36,6.61,16.24,9.11,25.75,9.54,8.25.37,16.53.08,25.33.08,0,4.96-.02,10.75,0,16.54.02,4.45.17,8.9.16,13.34-.02,8.2-5.43,12.17-13.19,9.53-25.89-8.82-48.68-22.72-67.78-42.34-18.52-19.02-32.68-40.87-41.41-66.08-4.95-14.29-7.82-29-8.97-44.06C.44,187.21.18,185.88,0,184.54c0-6.84,0-13.69,0-20.53Z"/></g></svg>