<svg id="Layer_2" xmlns="http://www.w3.org/2000/svg" viewBox="0 0 246.57 246.57">
    <defs>
        <style>
            .cls-1{
                fill:none;
                stroke:#34412c;
                stroke-miterlimit:10;
                stroke-width:3px;
            }
            .cls-2{
                fill:#34412c;
                stroke-width:0px;
            }
        </style>
    </defs>
    <g id="Layer_1-2">
        <path id='petal1' class="cls-1" d="m123.29,102.86c15.89,0,21.18-12.88,21.18-28.78S139.18,1.5,123.29,1.5c-10.98,0-16.89,27.03-19.5,48.99"/>
        <path id='petal2' class="cls-1" d="m113.07,105.6c13.76-7.95,11.9-21.75,3.96-35.51-7.95-13.76-40.87-60.22-54.64-52.27-9.5,5.49-1.11,31.85,7.61,52.18"/>
        <path id='petal3' class="cls-1" d="m105.6,113.07c7.95-13.76-.57-24.79-14.33-32.73-13.76-7.95-65.5-31.71-73.45-17.95-5.49,9.5,14.96,28.14,32.68,41.39"/>
        <path id='petal4' class="cls-1" d="m102.86,123.29c0-15.89-12.88-21.18-28.78-21.18-15.89,0-72.59,5.29-72.59,21.18,0,10.98,27.03,16.89,48.99,19.5"/>
        <path id='petal5' class="cls-1" d="m105.6,133.5c-7.95-13.76-21.75-11.9-35.51-3.96-13.76,7.95-60.22,40.87-52.27,54.64,5.49,9.5,31.85,1.11,52.18-7.61"/>
        <path id='petal6' class="cls-1" d="m113.07,140.97c-13.76-7.95-24.79.57-32.73,14.33-7.95,13.76-31.71,65.5-17.95,73.45,9.5,5.49,28.14-14.96,41.39-32.68"/>
        <path id='petal7' class="cls-1" d="m123.29,143.71c-15.89,0-21.18,12.88-21.18,28.78,0,15.89,5.29,72.59,21.18,72.59,10.98,0,16.89-27.03,19.5-48.99"/>
        <path id='petal8' class="cls-1" d="m133.5,140.97c-13.76,7.95-11.9,21.75-3.96,35.51,7.95,13.76,40.87,60.22,54.64,52.27,9.5-5.49,1.11-31.85-7.61-52.18"/>
        <path id='petal9' class="cls-1" d="m140.97,133.5c-7.95,13.76.57,24.79,14.33,32.73,13.76,7.95,65.5,31.71,73.45,17.95,5.49-9.5-14.96-28.14-32.68-41.39"/>
        <path id='petal10' class="cls-1" d="m143.71,123.29c0,15.89,12.88,21.18,28.78,21.18,15.89,0,72.59-5.29,72.59-21.18,0-10.98-27.03-16.89-48.99-19.5"/>
        <path id='petal11' class="cls-1" d="m140.97,113.07c7.95,13.76,21.75,11.9,35.51,3.96,13.76-7.95,60.22-40.87,52.27-54.64-5.49-9.5-31.85-1.11-52.18,7.61"/>
        <path id='petal12' class="cls-1" d="m133.5,105.6c13.76,7.95,24.79-.57,32.73-14.33,7.95-13.76,31.71-65.5,17.95-73.45-9.5-5.49-28.14,14.96-41.39,32.68"/>
        <circle class="cls-2" cx="123.29" cy="123.29" r="28.78"/>
    </g>
</svg>